<svg xmlns="http://www.w3.org/2000/svg" viewBox="0 0 1280 800" role="img" aria-labelledby="title desc">
  <title id="title">Decision Intelligence product preview</title>
  <desc id="desc">Product screenshot mockup of the Decision Intelligence workspace showing Plan Studio with replenishment plan output, metrics, and forecast chart.</desc>
  <defs>
    <linearGradient id="headerGrad" x1="0%" y1="0%" x2="100%" y2="0%">
      <stop offset="0%" stop-color="#0f172a" />
      <stop offset="100%" stop-color="#1e293b" />
    </linearGradient>
    <linearGradient id="greenBar" x1="0%" y1="0%" x2="100%" y2="0%">
      <stop offset="0%" stop-color="#22c55e" />
      <stop offset="100%" stop-color="#16a34a" />
    </linearGradient>
    <linearGradient id="blueBar" x1="0%" y1="0%" x2="100%" y2="0%">
      <stop offset="0%" stop-color="#3b82f6" />
      <stop offset="100%" stop-color="#2563eb" />
    </linearGradient>
    <linearGradient id="chartLine" x1="0%" y1="0%" x2="100%" y2="0%">
      <stop offset="0%" stop-color="#38bdf8" />
      <stop offset="100%" stop-color="#818cf8" />
    </linearGradient>
    <linearGradient id="chartFill" x1="0%" y1="0%" x2="0%" y2="100%">
      <stop offset="0%" stop-color="#38bdf8" stop-opacity="0.18" />
      <stop offset="100%" stop-color="#38bdf8" stop-opacity="0.02" />
    </linearGradient>
    <clipPath id="roundFrame">
      <rect width="1280" height="800" rx="12" />
    </clipPath>
  </defs>

  <g clip-path="url(#roundFrame)">
    <!-- Window chrome -->
    <rect width="1280" height="800" fill="#0f172a" />

    <!-- Title bar -->
    <rect width="1280" height="36" fill="#020617" />
    <circle cx="20" cy="18" r="6" fill="#ef4444" opacity="0.8" />
    <circle cx="40" cy="18" r="6" fill="#f59e0b" opacity="0.8" />
    <circle cx="60" cy="18" r="6" fill="#22c55e" opacity="0.8" />
    <text x="640" y="23" fill="#64748b" font-size="12" font-family="SF Mono, Menlo, monospace" text-anchor="middle">localhost:5173 — Decision Intelligence</text>

    <!-- Top nav bar -->
    <rect y="36" width="1280" height="48" fill="url(#headerGrad)" />
    <rect y="83" width="1280" height="1" fill="#1e293b" />

    <!-- Logo + nav items -->
    <rect x="16" y="46" width="28" height="28" rx="6" fill="#3b82f6" />
    <text x="23" y="65" fill="#ffffff" font-size="14" font-family="system-ui, sans-serif" font-weight="700">DI</text>
    <text x="56" y="65" fill="#f1f5f9" font-size="15" font-family="system-ui, sans-serif" font-weight="600">Decision Intelligence</text>

    <text x="820" y="65" fill="#64748b" font-size="13" font-family="system-ui, sans-serif">Command Center</text>
    <text x="948" y="65" fill="#f1f5f9" font-size="13" font-family="system-ui, sans-serif" font-weight="600">Plan Studio</text>
    <rect x="940" y="78" width="90" height="2" rx="1" fill="#3b82f6" />
    <text x="1050" y="65" fill="#64748b" font-size="13" font-family="system-ui, sans-serif">Forecast</text>
    <text x="1120" y="65" fill="#64748b" font-size="13" font-family="system-ui, sans-serif">Risk Center</text>
    <circle cx="1240" cy="60" r="16" fill="#1e293b" />
    <text x="1240" y="65" fill="#94a3b8" font-size="12" font-family="system-ui, sans-serif" text-anchor="middle">U</text>

    <!-- Left sidebar -->
    <rect x="0" y="84" width="232" height="716" fill="#0b1120" />
    <rect x="232" y="84" width="1" height="716" fill="#1e293b" />

    <!-- Sidebar: Dataset info -->
    <text x="20" y="116" fill="#64748b" font-size="11" font-family="system-ui, sans-serif" letter-spacing="1.2" font-weight="600">ACTIVE DATASET</text>
    <rect x="16" y="126" width="200" height="56" rx="8" fill="#1e293b" />
    <text x="28" y="148" fill="#e2e8f0" font-size="13" font-family="system-ui, sans-serif" font-weight="500">test_data.xlsx</text>
    <text x="28" y="170" fill="#64748b" font-size="12" font-family="system-ui, sans-serif">3 sheets · 847 rows · mapped</text>

    <!-- Sidebar: Steps -->
    <text x="20" y="210" fill="#64748b" font-size="11" font-family="system-ui, sans-serif" letter-spacing="1.2" font-weight="600">PLANNING STEPS</text>

    <!-- Step 1 completed -->
    <rect x="16" y="222" width="200" height="36" rx="6" fill="transparent" />
    <circle cx="32" cy="240" r="8" fill="#166534" />
    <text x="32" y="244" fill="#22c55e" font-size="10" font-family="system-ui, sans-serif" text-anchor="middle">&#10003;</text>
    <text x="48" y="244" fill="#94a3b8" font-size="13" font-family="system-ui, sans-serif">Data Import</text>

    <!-- Step 2 completed -->
    <rect x="16" y="258" width="200" height="36" rx="6" fill="transparent" />
    <circle cx="32" cy="276" r="8" fill="#166534" />
    <text x="32" y="280" fill="#22c55e" font-size="10" font-family="system-ui, sans-serif" text-anchor="middle">&#10003;</text>
    <text x="48" y="280" fill="#94a3b8" font-size="13" font-family="system-ui, sans-serif">Field Mapping</text>

    <!-- Step 3 completed -->
    <rect x="16" y="294" width="200" height="36" rx="6" fill="transparent" />
    <circle cx="32" cy="312" r="8" fill="#166534" />
    <text x="32" y="316" fill="#22c55e" font-size="10" font-family="system-ui, sans-serif" text-anchor="middle">&#10003;</text>
    <text x="48" y="316" fill="#94a3b8" font-size="13" font-family="system-ui, sans-serif">Validation</text>

    <!-- Step 4 completed -->
    <rect x="16" y="330" width="200" height="36" rx="6" fill="transparent" />
    <circle cx="32" cy="348" r="8" fill="#166534" />
    <text x="32" y="352" fill="#22c55e" font-size="10" font-family="system-ui, sans-serif" text-anchor="middle">&#10003;</text>
    <text x="48" y="352" fill="#94a3b8" font-size="13" font-family="system-ui, sans-serif">Forecast</text>

    <!-- Step 5 completed -->
    <rect x="16" y="366" width="200" height="36" rx="6" fill="transparent" />
    <circle cx="32" cy="384" r="8" fill="#166534" />
    <text x="32" y="388" fill="#22c55e" font-size="10" font-family="system-ui, sans-serif" text-anchor="middle">&#10003;</text>
    <text x="48" y="388" fill="#94a3b8" font-size="13" font-family="system-ui, sans-serif">Optimization</text>

    <!-- Step 6 active -->
    <rect x="16" y="402" width="200" height="36" rx="6" fill="#1e3a5f" />
    <circle cx="32" cy="420" r="8" fill="#2563eb" />
    <text x="32" y="424" fill="#ffffff" font-size="10" font-family="system-ui, sans-serif" text-anchor="middle">6</text>
    <text x="48" y="424" fill="#f1f5f9" font-size="13" font-family="system-ui, sans-serif" font-weight="600">Review &amp; Approve</text>

    <!-- Sidebar: Actions -->
    <text x="20" y="478" fill="#64748b" font-size="11" font-family="system-ui, sans-serif" letter-spacing="1.2" font-weight="600">ACTIONS</text>
    <rect x="16" y="490" width="200" height="34" rx="6" fill="#1e293b" />
    <text x="28" y="512" fill="#94a3b8" font-size="13" font-family="system-ui, sans-serif">Export Plan CSV</text>
    <rect x="16" y="530" width="200" height="34" rx="6" fill="#1e293b" />
    <text x="28" y="552" fill="#94a3b8" font-size="13" font-family="system-ui, sans-serif">Compare Scenarios</text>
    <rect x="16" y="570" width="200" height="34" rx="6" fill="#1e293b" />
    <text x="28" y="592" fill="#94a3b8" font-size="13" font-family="system-ui, sans-serif">Risk Assessment</text>

    <!-- Sidebar: Data Quality -->
    <rect x="16" y="630" width="200" height="80" rx="8" fill="#1e293b" />
    <text x="28" y="652" fill="#64748b" font-size="11" font-family="system-ui, sans-serif" letter-spacing="1" font-weight="600">DATA QUALITY</text>
    <rect x="28" y="662" width="174" height="6" rx="3" fill="#1e3a5f" />
    <rect x="28" y="662" width="156" height="6" rx="3" fill="url(#greenBar)" />
    <text x="28" y="694" fill="#22c55e" font-size="20" font-family="system-ui, sans-serif" font-weight="700">94%</text>
    <text x="70" y="694" fill="#64748b" font-size="12" font-family="system-ui, sans-serif">completeness</text>

    <!-- ===== MAIN CONTENT ===== -->

    <!-- Page header -->
    <text x="256" y="120" fill="#f1f5f9" font-size="22" font-family="system-ui, sans-serif" font-weight="700">Replenishment Plan</text>
    <rect x="460" y="104" width="64" height="22" rx="4" fill="#166534" />
    <text x="470" y="119" fill="#4ade80" font-size="11" font-family="system-ui, sans-serif" font-weight="600">Approved</text>
    <text x="256" y="142" fill="#64748b" font-size="13" font-family="system-ui, sans-serif">Generated from test_data.xlsx · 12 SKUs · 4 plants · horizon 2026-W11 to W22</text>

    <!-- KPI cards row -->
    <!-- Card 1: Fill Rate -->
    <rect x="256" y="160" width="198" height="96" rx="10" fill="#1e293b" />
    <text x="272" y="184" fill="#64748b" font-size="11" font-family="system-ui, sans-serif" letter-spacing="0.8" font-weight="600">FILL RATE</text>
    <text x="272" y="224" fill="#f1f5f9" font-size="32" font-family="system-ui, sans-serif" font-weight="700">97.4%</text>
    <text x="362" y="224" fill="#4ade80" font-size="12" font-family="system-ui, sans-serif" font-weight="500">+1.8pp</text>
    <text x="272" y="244" fill="#64748b" font-size="11" font-family="system-ui, sans-serif">vs previous run</text>

    <!-- Card 2: Total Orders -->
    <rect x="466" y="160" width="198" height="96" rx="10" fill="#1e293b" />
    <text x="482" y="184" fill="#64748b" font-size="11" font-family="system-ui, sans-serif" letter-spacing="0.8" font-weight="600">TOTAL ORDERS</text>
    <text x="482" y="224" fill="#f1f5f9" font-size="32" font-family="system-ui, sans-serif" font-weight="700">48</text>
    <text x="482" y="244" fill="#64748b" font-size="11" font-family="system-ui, sans-serif">across 12 SKUs</text>

    <!-- Card 3: At-Risk SKUs -->
    <rect x="676" y="160" width="198" height="96" rx="10" fill="#1e293b" />
    <text x="692" y="184" fill="#64748b" font-size="11" font-family="system-ui, sans-serif" letter-spacing="0.8" font-weight="600">AT-RISK SKUS</text>
    <text x="692" y="224" fill="#fbbf24" font-size="32" font-family="system-ui, sans-serif" font-weight="700">3</text>
    <text x="692" y="244" fill="#64748b" font-size="11" font-family="system-ui, sans-serif">supplier delay flagged</text>

    <!-- Card 4: Stockout Days -->
    <rect x="886" y="160" width="198" height="96" rx="10" fill="#1e293b" />
    <text x="902" y="184" fill="#64748b" font-size="11" font-family="system-ui, sans-serif" letter-spacing="0.8" font-weight="600">STOCKOUT DAYS</text>
    <text x="902" y="224" fill="#4ade80" font-size="32" font-family="system-ui, sans-serif" font-weight="700">0</text>
    <text x="902" y="244" fill="#64748b" font-size="11" font-family="system-ui, sans-serif">projected horizon</text>

    <!-- Card 5: Scenario Delta -->
    <rect x="1096" y="160" width="164" height="96" rx="10" fill="#1e293b" />
    <text x="1112" y="184" fill="#64748b" font-size="11" font-family="system-ui, sans-serif" letter-spacing="0.8" font-weight="600">SCENARIO &#916;</text>
    <text x="1112" y="224" fill="#38bdf8" font-size="32" font-family="system-ui, sans-serif" font-weight="700">-8.2%</text>
    <text x="1112" y="244" fill="#64748b" font-size="11" font-family="system-ui, sans-serif">cost impact</text>

    <!-- Plan Table -->
    <rect x="256" y="274" width="1004" height="310" rx="10" fill="#1e293b" />

    <!-- Table header -->
    <rect x="256" y="274" width="1004" height="38" rx="10" fill="#334155" />
    <rect x="256" y="302" width="1004" height="10" fill="#334155" />
    <text x="276" y="299" fill="#94a3b8" font-size="11" font-family="SF Mono, Menlo, monospace" font-weight="600">SKU</text>
    <text x="390" y="299" fill="#94a3b8" font-size="11" font-family="SF Mono, Menlo, monospace" font-weight="600">MATERIAL</text>
    <text x="530" y="299" fill="#94a3b8" font-size="11" font-family="SF Mono, Menlo, monospace" font-weight="600">PLANT</text>
    <text x="620" y="299" fill="#94a3b8" font-size="11" font-family="SF Mono, Menlo, monospace" font-weight="600">QTY</text>
    <text x="700" y="299" fill="#94a3b8" font-size="11" font-family="SF Mono, Menlo, monospace" font-weight="600">ORDER DATE</text>
    <text x="830" y="299" fill="#94a3b8" font-size="11" font-family="SF Mono, Menlo, monospace" font-weight="600">DELIVERY</text>
    <text x="960" y="299" fill="#94a3b8" font-size="11" font-family="SF Mono, Menlo, monospace" font-weight="600">COVER DAYS</text>
    <text x="1090" y="299" fill="#94a3b8" font-size="11" font-family="SF Mono, Menlo, monospace" font-weight="600">STATUS</text>

    <!-- Row 1 -->
    <line x1="268" y1="320" x2="1248" y2="320" stroke="#334155" stroke-width="1" />
    <text x="276" y="340" fill="#e2e8f0" font-size="12" font-family="SF Mono, Menlo, monospace">SKU-1001</text>
    <text x="390" y="340" fill="#94a3b8" font-size="12" font-family="SF Mono, Menlo, monospace">MAT-A7200</text>
    <text x="530" y="340" fill="#94a3b8" font-size="12" font-family="SF Mono, Menlo, monospace">P-1000</text>
    <text x="620" y="340" fill="#e2e8f0" font-size="12" font-family="SF Mono, Menlo, monospace">2,400</text>
    <text x="700" y="340" fill="#94a3b8" font-size="12" font-family="SF Mono, Menlo, monospace">2026-03-14</text>
    <text x="830" y="340" fill="#94a3b8" font-size="12" font-family="SF Mono, Menlo, monospace">2026-03-21</text>
    <text x="960" y="340" fill="#e2e8f0" font-size="12" font-family="SF Mono, Menlo, monospace">14</text>
    <rect x="1090" y="328" width="52" height="18" rx="4" fill="#166534" />
    <text x="1098" y="341" fill="#4ade80" font-size="10" font-family="system-ui, sans-serif" font-weight="600">OK</text>

    <!-- Row 2 -->
    <line x1="268" y1="356" x2="1248" y2="356" stroke="#334155" stroke-width="1" />
    <text x="276" y="376" fill="#e2e8f0" font-size="12" font-family="SF Mono, Menlo, monospace">SKU-1002</text>
    <text x="390" y="376" fill="#94a3b8" font-size="12" font-family="SF Mono, Menlo, monospace">MAT-B3100</text>
    <text x="530" y="376" fill="#94a3b8" font-size="12" font-family="SF Mono, Menlo, monospace">P-1000</text>
    <text x="620" y="376" fill="#e2e8f0" font-size="12" font-family="SF Mono, Menlo, monospace">1,800</text>
    <text x="700" y="376" fill="#94a3b8" font-size="12" font-family="SF Mono, Menlo, monospace">2026-03-14</text>
    <text x="830" y="376" fill="#94a3b8" font-size="12" font-family="SF Mono, Menlo, monospace">2026-03-28</text>
    <text x="960" y="376" fill="#e2e8f0" font-size="12" font-family="SF Mono, Menlo, monospace">21</text>
    <rect x="1090" y="364" width="52" height="18" rx="4" fill="#166534" />
    <text x="1098" y="377" fill="#4ade80" font-size="10" font-family="system-ui, sans-serif" font-weight="600">OK</text>

    <!-- Row 3 (at-risk) -->
    <line x1="268" y1="392" x2="1248" y2="392" stroke="#334155" stroke-width="1" />
    <rect x="260" y="393" width="996" height="35" fill="#451a03" opacity="0.25" />
    <text x="276" y="414" fill="#fbbf24" font-size="12" font-family="SF Mono, Menlo, monospace">SKU-1003</text>
    <text x="390" y="414" fill="#94a3b8" font-size="12" font-family="SF Mono, Menlo, monospace">MAT-C0840</text>
    <text x="530" y="414" fill="#94a3b8" font-size="12" font-family="SF Mono, Menlo, monospace">P-2000</text>
    <text x="620" y="414" fill="#e2e8f0" font-size="12" font-family="SF Mono, Menlo, monospace">3,600</text>
    <text x="700" y="414" fill="#94a3b8" font-size="12" font-family="SF Mono, Menlo, monospace">2026-03-12</text>
    <text x="830" y="414" fill="#94a3b8" font-size="12" font-family="SF Mono, Menlo, monospace">2026-03-26</text>
    <text x="960" y="414" fill="#fbbf24" font-size="12" font-family="SF Mono, Menlo, monospace">7</text>
    <rect x="1090" y="402" width="52" height="18" rx="4" fill="#713f12" />
    <text x="1098" y="415" fill="#fbbf24" font-size="10" font-family="system-ui, sans-serif" font-weight="600">RISK</text>

    <!-- Row 4 -->
    <line x1="268" y1="428" x2="1248" y2="428" stroke="#334155" stroke-width="1" />
    <text x="276" y="450" fill="#e2e8f0" font-size="12" font-family="SF Mono, Menlo, monospace">SKU-1004</text>
    <text x="390" y="450" fill="#94a3b8" font-size="12" font-family="SF Mono, Menlo, monospace">MAT-D5500</text>
    <text x="530" y="450" fill="#94a3b8" font-size="12" font-family="SF Mono, Menlo, monospace">P-1000</text>
    <text x="620" y="450" fill="#e2e8f0" font-size="12" font-family="SF Mono, Menlo, monospace">960</text>
    <text x="700" y="450" fill="#94a3b8" font-size="12" font-family="SF Mono, Menlo, monospace">2026-03-17</text>
    <text x="830" y="450" fill="#94a3b8" font-size="12" font-family="SF Mono, Menlo, monospace">2026-03-24</text>
    <text x="960" y="450" fill="#e2e8f0" font-size="12" font-family="SF Mono, Menlo, monospace">18</text>
    <rect x="1090" y="438" width="52" height="18" rx="4" fill="#166534" />
    <text x="1098" y="451" fill="#4ade80" font-size="10" font-family="system-ui, sans-serif" font-weight="600">OK</text>

    <!-- Row 5 -->
    <line x1="268" y1="464" x2="1248" y2="464" stroke="#334155" stroke-width="1" />
    <text x="276" y="486" fill="#e2e8f0" font-size="12" font-family="SF Mono, Menlo, monospace">SKU-1005</text>
    <text x="390" y="486" fill="#94a3b8" font-size="12" font-family="SF Mono, Menlo, monospace">MAT-E1200</text>
    <text x="530" y="486" fill="#94a3b8" font-size="12" font-family="SF Mono, Menlo, monospace">P-3000</text>
    <text x="620" y="486" fill="#e2e8f0" font-size="12" font-family="SF Mono, Menlo, monospace">5,100</text>
    <text x="700" y="486" fill="#94a3b8" font-size="12" font-family="SF Mono, Menlo, monospace">2026-03-14</text>
    <text x="830" y="486" fill="#94a3b8" font-size="12" font-family="SF Mono, Menlo, monospace">2026-03-21</text>
    <text x="960" y="486" fill="#e2e8f0" font-size="12" font-family="SF Mono, Menlo, monospace">12</text>
    <rect x="1090" y="474" width="52" height="18" rx="4" fill="#166534" />
    <text x="1098" y="487" fill="#4ade80" font-size="10" font-family="system-ui, sans-serif" font-weight="600">OK</text>

    <!-- Row 6 (at-risk) -->
    <line x1="268" y1="500" x2="1248" y2="500" stroke="#334155" stroke-width="1" />
    <rect x="260" y="501" width="996" height="35" fill="#451a03" opacity="0.25" />
    <text x="276" y="522" fill="#fbbf24" font-size="12" font-family="SF Mono, Menlo, monospace">SKU-1006</text>
    <text x="390" y="522" fill="#94a3b8" font-size="12" font-family="SF Mono, Menlo, monospace">MAT-F8900</text>
    <text x="530" y="522" fill="#94a3b8" font-size="12" font-family="SF Mono, Menlo, monospace">P-2000</text>
    <text x="620" y="522" fill="#e2e8f0" font-size="12" font-family="SF Mono, Menlo, monospace">2,200</text>
    <text x="700" y="522" fill="#94a3b8" font-size="12" font-family="SF Mono, Menlo, monospace">2026-03-11</text>
    <text x="830" y="522" fill="#94a3b8" font-size="12" font-family="SF Mono, Menlo, monospace">2026-03-25</text>
    <text x="960" y="522" fill="#fbbf24" font-size="12" font-family="SF Mono, Menlo, monospace">5</text>
    <rect x="1090" y="510" width="52" height="18" rx="4" fill="#713f12" />
    <text x="1098" y="523" fill="#fbbf24" font-size="10" font-family="system-ui, sans-serif" font-weight="600">RISK</text>

    <!-- Table footer -->
    <text x="276" y="564" fill="#64748b" font-size="11" font-family="system-ui, sans-serif">Showing 6 of 48 orders · 12 SKUs · 4 plants</text>
    <text x="1140" y="564" fill="#64748b" font-size="11" font-family="system-ui, sans-serif">1 / 8</text>
    <rect x="1170" y="552" width="20" height="18" rx="4" fill="#334155" />
    <text x="1176" y="564" fill="#94a3b8" font-size="10" font-family="system-ui, sans-serif">›</text>

    <!-- Bottom section: Forecast chart + Constraint check -->

    <!-- Forecast mini chart -->
    <rect x="256" y="598" width="620" height="186" rx="10" fill="#1e293b" />
    <text x="276" y="624" fill="#e2e8f0" font-size="14" font-family="system-ui, sans-serif" font-weight="600">Demand Forecast — SKU-1003</text>
    <text x="660" y="624" fill="#64748b" font-size="11" font-family="system-ui, sans-serif">W11–W22</text>

    <!-- Chart Y axis labels -->
    <text x="276" y="654" fill="#475569" font-size="10" font-family="SF Mono, Menlo, monospace">3k</text>
    <text x="276" y="694" fill="#475569" font-size="10" font-family="SF Mono, Menlo, monospace">2k</text>
    <text x="276" y="734" fill="#475569" font-size="10" font-family="SF Mono, Menlo, monospace">1k</text>
    <text x="276" y="770" fill="#475569" font-size="10" font-family="SF Mono, Menlo, monospace">0</text>

    <!-- Chart grid lines -->
    <line x1="300" y1="650" x2="856" y2="650" stroke="#334155" stroke-width="1" stroke-dasharray="4 4" />
    <line x1="300" y1="690" x2="856" y2="690" stroke="#334155" stroke-width="1" stroke-dasharray="4 4" />
    <line x1="300" y1="730" x2="856" y2="730" stroke="#334155" stroke-width="1" stroke-dasharray="4 4" />
    <line x1="300" y1="766" x2="856" y2="766" stroke="#334155" stroke-width="1" />

    <!-- Actual line (historical) -->
    <polyline fill="none" stroke="#94a3b8" stroke-width="2" stroke-linecap="round" stroke-linejoin="round"
      points="310,720 356,710 402,690 448,702 494,678 540,668" />

    <!-- Forecast area fill -->
    <path d="M540,668 L586,658 L632,644 L678,636 L724,628 L770,618 L816,608 L846,600 L846,766 L540,766 Z" fill="url(#chartFill)" />

    <!-- Forecast line -->
    <polyline fill="none" stroke="url(#chartLine)" stroke-width="2.5" stroke-linecap="round" stroke-linejoin="round"
      points="540,668 586,658 632,644 678,636 724,628 770,618 816,608 846,600" />

    <!-- Confidence band -->
    <path d="M540,668 L586,648 L632,630 L678,618 L724,608 L770,596 L816,584 L846,574 L846,626 L816,632 L770,640 L724,648 L678,654 L632,658 L586,668 L540,668 Z" fill="#38bdf8" opacity="0.08" />

    <!-- Divider between actual and forecast -->
    <line x1="540" y1="640" x2="540" y2="770" stroke="#475569" stroke-width="1" stroke-dasharray="3 3" />
    <text x="510" y="636" fill="#64748b" font-size="9" font-family="system-ui, sans-serif">now</text>

    <!-- Chart legend -->
    <line x1="310" y1="778" x2="330" y2="778" stroke="#94a3b8" stroke-width="2" />
    <text x="336" y="782" fill="#64748b" font-size="10" font-family="system-ui, sans-serif">Actual</text>
    <line x1="400" y1="778" x2="420" y2="778" stroke="#38bdf8" stroke-width="2" />
    <text x="426" y="782" fill="#64748b" font-size="10" font-family="system-ui, sans-serif">Forecast (p50)</text>
    <rect x="530" y="774" width="20" height="8" rx="2" fill="#38bdf8" opacity="0.15" />
    <text x="556" y="782" fill="#64748b" font-size="10" font-family="system-ui, sans-serif">80% CI</text>

    <!-- Constraint check panel -->
    <rect x="890" y="598" width="370" height="186" rx="10" fill="#1e293b" />
    <text x="910" y="624" fill="#e2e8f0" font-size="14" font-family="system-ui, sans-serif" font-weight="600">Constraint Check</text>
    <rect x="1134" y="610" width="108" height="20" rx="4" fill="#166534" />
    <text x="1144" y="624" fill="#4ade80" font-size="11" font-family="system-ui, sans-serif" font-weight="600">All passed</text>

    <!-- Constraint items -->
    <text x="926" y="656" fill="#4ade80" font-size="12" font-family="SF Mono, Menlo, monospace">&#10003;</text>
    <text x="942" y="656" fill="#cbd5e1" font-size="12" font-family="system-ui, sans-serif">MOQ constraints satisfied</text>
    <text x="926" y="680" fill="#4ade80" font-size="12" font-family="SF Mono, Menlo, monospace">&#10003;</text>
    <text x="942" y="680" fill="#cbd5e1" font-size="12" font-family="system-ui, sans-serif">Lead time coverage met</text>
    <text x="926" y="704" fill="#4ade80" font-size="12" font-family="SF Mono, Menlo, monospace">&#10003;</text>
    <text x="942" y="704" fill="#cbd5e1" font-size="12" font-family="system-ui, sans-serif">Budget cap within limit</text>
    <text x="926" y="728" fill="#4ade80" font-size="12" font-family="SF Mono, Menlo, monospace">&#10003;</text>
    <text x="942" y="728" fill="#cbd5e1" font-size="12" font-family="system-ui, sans-serif">Safety stock maintained</text>
    <text x="926" y="752" fill="#fbbf24" font-size="12" font-family="SF Mono, Menlo, monospace">!</text>
    <text x="942" y="752" fill="#cbd5e1" font-size="12" font-family="system-ui, sans-serif">2 SKUs near reorder point</text>
    <text x="926" y="776" fill="#4ade80" font-size="12" font-family="SF Mono, Menlo, monospace">&#10003;</text>
    <text x="942" y="776" fill="#cbd5e1" font-size="12" font-family="system-ui, sans-serif">Shelf-life expiry clear</text>

  </g>
</svg>