<svg xmlns="http://www.w3.org/2000/svg" viewBox="0 0 1280 760" role="img" aria-labelledby="title desc">
  <title id="title">Decision Intelligence product preview</title>
  <desc id="desc">Stylized preview of the Decision Intelligence workspace showing planning, forecast, risk, and release gate panels.</desc>
  <defs>
    <linearGradient id="bg" x1="0%" y1="0%" x2="100%" y2="100%">
      <stop offset="0%" stop-color="#07131f" />
      <stop offset="55%" stop-color="#0c2231" />
      <stop offset="100%" stop-color="#12374a" />
    </linearGradient>
    <linearGradient id="accent" x1="0%" y1="0%" x2="100%" y2="0%">
      <stop offset="0%" stop-color="#22c55e" />
      <stop offset="100%" stop-color="#f59e0b" />
    </linearGradient>
    <linearGradient id="metricA" x1="0%" y1="0%" x2="100%" y2="100%">
      <stop offset="0%" stop-color="#10324a" />
      <stop offset="100%" stop-color="#0d4d54" />
    </linearGradient>
    <linearGradient id="metricB" x1="0%" y1="0%" x2="100%" y2="100%">
      <stop offset="0%" stop-color="#2b2250" />
      <stop offset="100%" stop-color="#4b2d5f" />
    </linearGradient>
    <linearGradient id="metricC" x1="0%" y1="0%" x2="100%" y2="100%">
      <stop offset="0%" stop-color="#4a2a15" />
      <stop offset="100%" stop-color="#6c3c12" />
    </linearGradient>
    <filter id="shadow" x="-20%" y="-20%" width="140%" height="140%">
      <feDropShadow dx="0" dy="18" stdDeviation="24" flood-color="#02070d" flood-opacity="0.35" />
    </filter>
  </defs>

  <rect width="1280" height="760" fill="url(#bg)" />
  <circle cx="1180" cy="116" r="180" fill="#1d4d4f" opacity="0.24" />
  <circle cx="166" cy="638" r="210" fill="#204a6b" opacity="0.18" />

  <text x="68" y="82" fill="#f8fafc" font-size="34" font-family="system-ui, -apple-system, Segoe UI, sans-serif" font-weight="700">Decision Intelligence</text>
  <text x="68" y="120" fill="#b6c7d7" font-size="18" font-family="system-ui, -apple-system, Segoe UI, sans-serif">Chat-first planning, forecasting, risk review, and scenario decisions in one workspace.</text>

  <g filter="url(#shadow)">
    <rect x="56" y="164" width="1168" height="540" rx="30" fill="#06111c" fill-opacity="0.94" stroke="#26445d" stroke-opacity="0.72" />

    <rect x="84" y="192" width="214" height="484" rx="24" fill="#091826" stroke="#1b3347" />
    <text x="110" y="230" fill="#7dd3fc" font-size="13" font-family="system-ui, -apple-system, Segoe UI, sans-serif" letter-spacing="1.4" font-weight="700">WORKSPACE</text>

    <rect x="106" y="254" width="170" height="40" rx="14" fill="#102437" />
    <text x="126" y="279" fill="#dce7f3" font-size="15" font-family="system-ui, -apple-system, Segoe UI, sans-serif">Command Center</text>

    <rect x="106" y="306" width="170" height="42" rx="14" fill="#0f3c4b" />
    <rect x="116" y="319" width="8" height="16" rx="4" fill="#22c55e" />
    <text x="132" y="332" fill="#f8fafc" font-size="15" font-family="system-ui, -apple-system, Segoe UI, sans-serif" font-weight="700">Plan Studio</text>

    <rect x="106" y="362" width="170" height="40" rx="14" fill="#102437" />
    <text x="126" y="387" fill="#dce7f3" font-size="15" font-family="system-ui, -apple-system, Segoe UI, sans-serif">Forecast Studio</text>

    <rect x="106" y="414" width="170" height="40" rx="14" fill="#102437" />
    <text x="126" y="439" fill="#dce7f3" font-size="15" font-family="system-ui, -apple-system, Segoe UI, sans-serif">Risk Center</text>

    <rect x="106" y="466" width="170" height="40" rx="14" fill="#102437" />
    <text x="126" y="491" fill="#dce7f3" font-size="15" font-family="system-ui, -apple-system, Segoe UI, sans-serif">Digital Twin</text>

    <rect x="106" y="518" width="170" height="40" rx="14" fill="#102437" />
    <text x="126" y="543" fill="#dce7f3" font-size="15" font-family="system-ui, -apple-system, Segoe UI, sans-serif">Scenario Studio</text>

    <rect x="106" y="590" width="170" height="62" rx="18" fill="#0b2132" stroke="#1c3d56" />
    <text x="126" y="616" fill="#f8fafc" font-size="14" font-family="system-ui, -apple-system, Segoe UI, sans-serif" font-weight="700">Release Gate</text>
    <text x="126" y="638" fill="#9bc3d7" font-size="13" font-family="system-ui, -apple-system, Segoe UI, sans-serif">lint  unit  e2e  regression</text>

    <rect x="322" y="192" width="874" height="72" rx="24" fill="#0a1827" stroke="#1b3348" />
    <text x="350" y="222" fill="#7dd3fc" font-size="13" font-family="system-ui, -apple-system, Segoe UI, sans-serif" letter-spacing="1.3" font-weight="700">PRODUCT PREVIEW</text>
    <text x="350" y="248" fill="#f8fafc" font-size="24" font-family="system-ui, -apple-system, Segoe UI, sans-serif" font-weight="700">Plan generation, forecast diagnostics, and scenario review in one flow</text>
    <rect x="1052" y="214" width="120" height="28" rx="14" fill="#0d2e24" />
    <circle cx="1073" cy="228" r="5" fill="#22c55e" />
    <text x="1086" y="233" fill="#d6f5dd" font-size="13" font-family="system-ui, -apple-system, Segoe UI, sans-serif">healthy</text>

    <rect x="322" y="286" width="268" height="118" rx="22" fill="url(#metricA)" stroke="#1e5060" />
    <text x="348" y="316" fill="#8fd6db" font-size="13" font-family="system-ui, -apple-system, Segoe UI, sans-serif" letter-spacing="1.1" font-weight="700">FILL RATE</text>
    <text x="348" y="362" fill="#f8fafc" font-size="40" font-family="system-ui, -apple-system, Segoe UI, sans-serif" font-weight="700">97.4%</text>
    <text x="348" y="388" fill="#b4dce0" font-size="14" font-family="system-ui, -apple-system, Segoe UI, sans-serif">last approved plan  +1.8pp vs previous run</text>

    <rect x="625" y="286" width="268" height="118" rx="22" fill="url(#metricB)" stroke="#5c3b73" />
    <text x="651" y="316" fill="#d5b5ff" font-size="13" font-family="system-ui, -apple-system, Segoe UI, sans-serif" letter-spacing="1.1" font-weight="700">AT-RISK SKUS</text>
    <text x="651" y="362" fill="#f8fafc" font-size="40" font-family="system-ui, -apple-system, Segoe UI, sans-serif" font-weight="700">6</text>
    <text x="651" y="388" fill="#e1c7ff" font-size="14" font-family="system-ui, -apple-system, Segoe UI, sans-serif">supplier delay and low cover now surfaced in Risk Center</text>

    <rect x="928" y="286" width="268" height="118" rx="22" fill="url(#metricC)" stroke="#7d4c1f" />
    <text x="954" y="316" fill="#f6c98a" font-size="13" font-family="system-ui, -apple-system, Segoe UI, sans-serif" letter-spacing="1.1" font-weight="700">SCENARIO DELTA</text>
    <text x="954" y="362" fill="#f8fafc" font-size="40" font-family="system-ui, -apple-system, Segoe UI, sans-serif" font-weight="700">-8.2%</text>
    <text x="954" y="388" fill="#f5d4aa" font-size="14" font-family="system-ui, -apple-system, Segoe UI, sans-serif">expedite scenario cuts projected stockout impact</text>

    <rect x="322" y="430" width="428" height="216" rx="24" fill="#0a1827" stroke="#1b3348" />
    <text x="348" y="460" fill="#f8fafc" font-size="20" font-family="system-ui, -apple-system, Segoe UI, sans-serif" font-weight="700">Plan Studio</text>
    <text x="348" y="486" fill="#9eb8cc" font-size="14" font-family="system-ui, -apple-system, Segoe UI, sans-serif">Upload a workbook, map fields, and generate a replenishment plan from one guided workspace.</text>
    <rect x="348" y="510" width="376" height="32" rx="12" fill="#102437" />
    <rect x="360" y="520" width="76" height="12" rx="6" fill="#22c55e" />
    <rect x="444" y="520" width="92" height="12" rx="6" fill="#38bdf8" />
    <rect x="544" y="520" width="68" height="12" rx="6" fill="#f59e0b" />
    <text x="348" y="574" fill="#dce7f3" font-size="15" font-family="system-ui, -apple-system, Segoe UI, sans-serif">Sample flow</text>
    <text x="348" y="600" fill="#8fb2c9" font-size="14" font-family="system-ui, -apple-system, Segoe UI, sans-serif">1. Upload sample workbook</text>
    <text x="348" y="622" fill="#8fb2c9" font-size="14" font-family="system-ui, -apple-system, Segoe UI, sans-serif">2. Validate fields and demand coverage</text>
    <text x="548" y="600" fill="#8fb2c9" font-size="14" font-family="system-ui, -apple-system, Segoe UI, sans-serif">3. Generate plan and review actions</text>
    <text x="548" y="622" fill="#8fb2c9" font-size="14" font-family="system-ui, -apple-system, Segoe UI, sans-serif">4. Approve or compare scenarios</text>

    <rect x="776" y="430" width="194" height="216" rx="24" fill="#0a1827" stroke="#1b3348" />
    <text x="802" y="460" fill="#f8fafc" font-size="20" font-family="system-ui, -apple-system, Segoe UI, sans-serif" font-weight="700">Forecast</text>
    <text x="802" y="484" fill="#9eb8cc" font-size="14" font-family="system-ui, -apple-system, Segoe UI, sans-serif">Diagnostics</text>
    <polyline fill="none" stroke="url(#accent)" stroke-width="5" stroke-linecap="round" stroke-linejoin="round"
      points="802,580 828,566 854,574 880,528 906,540 932,494 958,506" />
    <line x1="802" y1="606" x2="958" y2="606" stroke="#2c465c" stroke-width="2" />
    <circle cx="958" cy="506" r="6" fill="#f59e0b" />
    <text x="802" y="632" fill="#8fb2c9" font-size="13" font-family="system-ui, -apple-system, Segoe UI, sans-serif">p50 and trend cards surfaced beside the plan flow</text>

    <rect x="994" y="430" width="202" height="216" rx="24" fill="#0a1827" stroke="#1b3348" />
    <text x="1020" y="460" fill="#f8fafc" font-size="20" font-family="system-ui, -apple-system, Segoe UI, sans-serif" font-weight="700">Risk Center</text>
    <text x="1020" y="488" fill="#9eb8cc" font-size="14" font-family="system-ui, -apple-system, Segoe UI, sans-serif">Supplier risk and scenario comparison</text>
    <rect x="1020" y="516" width="150" height="34" rx="12" fill="#3b1f26" />
    <text x="1036" y="538" fill="#fecaca" font-size="14" font-family="system-ui, -apple-system, Segoe UI, sans-serif">2 supplier delay alerts</text>
    <rect x="1020" y="562" width="150" height="34" rx="12" fill="#102b3b" />
    <text x="1036" y="584" fill="#bae6fd" font-size="14" font-family="system-ui, -apple-system, Segoe UI, sans-serif">3 scenario comparisons</text>
    <rect x="1020" y="608" width="150" height="14" rx="7" fill="#17364c" />
    <rect x="1020" y="608" width="108" height="14" rx="7" fill="url(#accent)" />
  </g>
</svg>
